PathFileType	4	(X/Y/Z)	C:/Users/beibeiliu/ov580/test_trc\sequence.12_training_dense_left.trc
DataRate	CameraRate	NumFrames	NumMarkers	Units	OrigDataRate	OrigDataStartFrame	OrigNumFrames
120	120	18	19	mm	120	1	76
Frame#	Time	ThumbCMC			ThumbMCP			ThumbIP			ThumbTip			IndexMCP			IndexPIP			IndexTip			MiddleMCP			MiddlePIP			MiddleTip			RingMCP			RingPIP			RingTip			PinkyMCP			PinkyPIP			PinkyTip			BackHand1			BackHand2			BackHand3	
		X0	Y0	Z0	X1	Y1	Z1	X2	Y2	Z2	X3	Y3	Z3	X4	Y4	Z4	X5	Y5	Z5	X6	Y6	Z6	X7	Y7	Z7	X8	Y8	Z8	X9	Y9	Z9	X10	Y10	Z10	X11	Y11	Z11	X12	Y12	Z12	X13	Y13	Z13	X14	Y14	Z14	X15	Y15	Z15	X16	Y16	Z16	X17	Y17	Z17	X18	Y18	Z18	
0	0	-254.192	2.81577	114.581	-236.588	21.7382	89.4484	-228.819	30.4931	62.4609	-212.497	25.8589	38.2297	-244.699	-30.6986	49.6855	-237.908	-18.6665	26.1487	-223.053	-1.37999	3.54809	-224.131	-34.0883	47.1267	-210.383	-13.4364	27.1891	-197.472	18.0758	27.9169	-207.47	-44.3453	51.8558	-196.668	-36.4694	31.2833	-185.275	-18.0766	11.8312	-185.241	-50.9737	71.3043	-175.752	-51.5343	55.4934	-166.692	-59.7124	33.1579	-219.754	-53.9635	105.224	-223.026	-48.3154	139.858	-249.936	-40.8802	116.184	
1	0.00833333	-263.578	-3.30342	115.982	-249.427	13.709	88.344	-241.316	15.7973	63.424	-230.784	14.1736	37.2896	-263.616	-38.9086	52.8522	-256.602	-27.8374	25.6576	-243.345	-11.3173	5.22829	-244.524	-40.0517	47.2107	-234.09	-23.3895	28.7764	-217.624	8.88968	25.2928	-224.185	-54.4806	55.091	-219.956	-44.1813	30.9633	-208.949	-24.5472	5.9812	-207.452	-57.5615	73.4401	-196.171	-62.5644	47.9009	-189.668	-70.2553	30.3623	-232.045	-58.9674	111.378	-235.679	-53.9042	139.7	-263.529	-44.5572	119.076	
2	0.0166667	-265.959	7.21912	120.035	-250.225	18.5331	92.3862	-245.4	22.1966	59.7846	-238.715	16.1735	41.2192	-284.592	-23.6431	52.2241	-275.159	-18.8801	30.0451	-264.999	-5.15272	8.34234	-262.755	-35.2344	51.3363	-250.454	-17.9114	28.6026	-231.769	8.67164	22.5648	-251.049	-47.9383	56.6322	-240.967	-38.9081	26.4749	-228.768	-24.6598	5.47303	-229.614	-60.2245	70.4182	-223.047	-64.2501	46.4218	-220.97	-69.6066	24.5779	-250.263	-55.5132	111.039	-249.742	-47.5409	139.208	-274.886	-33.354	124.394	
3	0.025	-257.015	28.9281	116.204	-237.841	31.5272	90.4189	-231.898	32.8841	62.6076	-227.414	26.2505	42.1554	-283.87	3.99008	53.8828	-276.196	11.0687	27.1513	-259.109	10.8564	10.1046	-271.586	-11.4264	52.7498	-250.696	-1.40144	27.2091	-222.472	13.6563	23.1333	-264.924	-29.0249	53.6862	-253.108	-26.297	26.6833	-240.796	-17.1366	7.79844	-251.224	-44.5357	70.3886	-250.393	-51.9985	45.4929	-249.775	-61.5832	23.4204	-265.969	-35.577	107.387	-259.888	-34.5737	137.611	-280.536	-6.70835	121.971	
4	0.0333333	-230.082	38.2229	120.22	-210.553	37.9579	89.2613	-201.98	38.1912	63.897	-202.576	26.2785	40.1299	-263.522	35.504	54.8639	-253.863	33.6891	29.8981	-236.518	30.9673	8.24854	-258.914	15.7196	45.2705	-233.654	14.8841	25.8546	-204.994	13.5477	23.4656	-261.715	-10.7284	52.4947	-250.24	-8.28375	23.6643	-230.491	-9.04453	3.7095	-259.251	-32.0439	66.5263	-260.7	-32.9138	45.0868	-265.003	-43.7469	21.6488	-269.841	-11.6122	106.117	-264.433	-7.43643	134.401	-266.379	20.5278	119.649	
5	0.0416667	-201.144	32.3498	116.821	-182.3	21.4646	92.8462	-176.062	14.7583	64.4818	-177.486	3.83806	42.7443	-226.228	42.2692	54.0458	-215.281	29.6675	26.4082	-199.27	20.4451	10.5732	-233.068	17.7083	45.5667	-211.391	8.33378	27.2684	-184.368	-10.8496	28.9215	-248.095	-0.915836	51.4497	-235.449	-8.47547	24.129	-218.367	-17.5005	7.70245	-256.601	-17.7672	66.6319	-257.333	-22.4575	46.8952	-262.938	-32.9305	22.4513	-256.237	8.01289	107.722	-253.765	5.44003	134.798	-239.178	35.5095	118.863	
6	0.05	-172.592	17.3327	122.317	-155.796	-3.44205	100.826	-151.785	-15.8789	80.1501	-155.604	-26.5844	56.9793	-188.262	23.9417	51.4106	-175.183	13.9013	34.0251	-163.867	-9.22349	20.411	-202.314	6.26192	47.3779	-184.362	-9.6084	33.9357	-162.935	-39.0773	40.7733	-220.762	-1.22783	54.8129	-211.956	-17.5391	30.2159	-191.407	-35.3904	13.3137	-241.172	-18.5655	67.9266	-242.331	-26.495	43.4441	-247.131	-34.3421	22.6281	-231.856	10.9565	107.098	-236.712	10.5208	135.722	-212.915	31.791	119.829	
7	0.0583333	-159.824	13.6127	133.687	-142.811	-13.2274	116.956	-131.306	-29.5661	92.5635	-131.395	-43.4458	73.5705	-161.874	14.9578	57.7638	-144.086	-3.7799	42.2972	-136.549	-26.9085	36.0153	-176.959	-2.62562	53.0202	-160.581	-23.9588	44.3744	-139.294	-51.582	59.2547	-197.222	-9.30125	56.309	-187.4	-31.727	37.4412	-168.855	-50.8347	29.4377	-221.616	-23.1047	66.071	-218.405	-33.0168	49.0675	-218.954	-46.5744	23.5118	-220.586	7.92804	105.346	-224.326	13.5713	131.476	-194.805	33.3317	118.362	
8	0.0666667	-155.435	18.9123	137.424	-135.402	-7.75056	125.998	-122.154	-22.9919	109.62	-116.141	-39.8748	88.4167	-148.422	16.4635	66.7324	-126.078	-3.66315	53.7356	-107.806	-25.3432	53.9859	-161.787	-1.65537	61.668	-139.563	-28.0981	56.0461	-120.607	-47.2623	73.6726	-178.737	-15.6875	60.4344	-162.777	-35.5897	48.0934	-137.152	-52.4514	45.4871	-202.074	-29.0126	73.7157	-193.499	-40.6608	56.472	-190.107	-56.337	34.1037	-208.298	6.80855	103.64	-219.922	12.6463	132.58	-190.761	32.4162	119.792	
9	0.075	-164.36	32.79	138.879	-130.873	15.3762	131.863	-111.769	4.72832	118.659	-106.049	-13.4143	100.56	-147.518	26.6693	68.0366	-126.529	13.2834	58.4436	-101.599	-3.40048	59.0206	-153	5.59336	63.6	-125.756	-8.79745	62.0929	-103.8	-22.9673	81.9494	-164.3	-11.1625	63.9483	-145.819	-29.1117	56.2154	-116.838	-38.1923	57.5047	-183.1	-28.3353	77.9157	-169.77	-44.4251	62.1635	-160.776	-56.0029	44.8803	-207.765	0.6168	102.952	-219.731	7.27958	126.438	-198.309	34.941	117.699	
10	0.0833333	-179.979	43.9652	131.819	-145.865	39.1998	126.948	-122.155	34.7251	112.377	-106.993	20.3618	94.6868	-160.978	32.5836	63.0575	-135.796	32.8917	54.3731	-105.92	24.3255	55.7578	-155.924	12.2968	61.1637	-127.884	10.6127	62.0359	-101.807	5.6116	82.9779	-162.245	-12.5766	66.313	-136.506	-15.4472	57.9058	-105.4	-12.1412	58.1461	-171.702	-28.4014	79.3484	-154.395	-38.7283	65.0247	-141.034	-48.4122	49.5406	-206.919	-8.70533	102.263	-219.425	-4.84772	124.602	-212.687	25.4954	111.625	
11	0.0916667	-201.437	39.0992	127.759	-168.083	52.9146	118.84	-145.614	54.893	101.905	-129.667	40.9817	85.9416	-181.926	31.1615	55.3834	-156.56	37.8901	44.3215	-131.457	39.4045	43.6964	-171.538	12.4551	57.8045	-139.676	20.0702	55.4412	-113.359	31.8537	76.0037	-168.402	-10.6605	64.599	-143.773	-3.6308	52.9272	-116.263	4.06455	50.5238	-167.511	-28.4947	74.0551	-152.529	-32.5185	64.8171	-134.673	-43.959	46.9261	-208.316	-19.7759	100.193	-221.153	-20.4625	126.996	-223.395	14.567	108.104	
12	0.1	-216.767	26.5527	119.599	-188.43	41.4474	109.582	-169.226	53.3963	90.824	-151.524	46.4453	71.8172	-202.612	16.9973	49.8541	-183.321	29.1437	35.7921	-159.581	37.0733	31.9326	-186.759	4.32986	52.5348	-158.538	19.2207	47.671	-136.794	35.8658	60.6513	-176.016	-19.4702	60.8006	-155.748	-3.96546	44.8104	-132.889	10.1746	39.7587	-170.807	-36.3288	78.6506	-156.126	-36.7394	63.2055	-139.824	-42.691	40.6178	-209.843	-29.0146	101.437	-221.237	-32.298	132.594	-232.762	-6.154	111.803	
13	0.108333	-229.99	19.3608	122.443	-205.789	39.1975	101.815	-189.416	45.4957	79.4221	-171.575	39.2544	61.5887	-218.527	-2.02902	52.7314	-203.865	10.7113	32.9505	-178.66	27.8929	23.5748	-199.865	-9.33305	49.3632	-178.699	10.6689	40.0401	-159.485	32.6698	48.2176	-187.672	-26.6102	58.0224	-170.995	-15.9883	42.9634	-152.7	3.71451	31.7135	-178.687	-41.4551	74.0476	-161.374	-42.8656	57.147	-150.364	-46.2139	37.5733	-213.186	-38.724	105.531	-222.695	-41.1714	134.634	-241.954	-20.1977	116.934	
14	0.116667	-239.79	10.8931	121	-218.813	29.825	101.301	-204.709	37.1736	76.3594	-189.01	30.2797	56.8954	-228.521	-15.1505	50.9054	-215.437	-2.97041	31.4103	-195.363	15.5491	20.4599	-213.284	-21.915	51.8295	-194.267	-1.6502	36.1632	-171.96	27.141	44.0338	-197.402	-36.8572	58.9575	-181.285	-25.2765	38.6732	-168.165	-5.64926	26.6468	-181.365	-51.0725	76.3169	-170.682	-51.5227	60.6529	-156.819	-56.263	34.8471	-214.909	-50.1752	111.919	-222.685	-45.5852	137.638	-244.404	-30.9656	118.09	
15	0.125	-246.796	1.8692	121.289	-228.122	18.8467	96.8173	-218.193	26.175	68.8072	-204.957	24.0875	52.5378	-242.585	-26.6778	53.522	-232.106	-13.4575	30.2162	-208.296	4.3162	17.0246	-222.674	-35.9727	53.4843	-207.743	-10.9104	32.7274	-190.35	14.8073	36.5112	-206.738	-48.2818	61.0655	-195.485	-36.1487	38.1528	-180.761	-16.1247	22.3628	-188.964	-58.7372	77.6374	-181.168	-58.7381	57.497	-170.883	-63.2431	33.1706	-220.763	-55.7031	110.826	-225.761	-52.8348	140.926	-252.21	-40.628	118.7	
16	0.133333	-255.747	-7.14254	122.819	-238.965	9.27161	91.7302	-230.936	14.0545	68.7997	-218.929	9.10709	44.6973	-254.912	-41.2379	57.8549	-242.217	-28.103	30.7982	-226.845	-11.5804	16.6737	-233.727	-49.0034	56.3796	-219.681	-28.2431	32.8372	-204.606	0.442363	32.4881	-220.626	-58.1281	59.9438	-206.83	-49.4392	34.9527	-195.697	-27.5478	15.8402	-199.8	-68.1924	75.8431	-192.054	-70.3379	57.3389	-183.483	-74.7447	34.0633	-227.63	-65.0014	117.347	-231.864	-61.3055	141.5	-257.166	-51.1499	122.145	
17	0.141667	-261.765	-11.8672	121.172	-244.909	2.29993	95.5299	-238.797	6.77354	68.3698	-229.369	2.04072	43.2982	-268.888	-47.8099	60.4288	-255.319	-37.4954	32.0874	-241.034	-21.3754	17.2423	-245.762	-56.0948	53.163	-235.217	-37.6702	33.019	-214.698	-6.79167	29.7427	-229.689	-69.1693	60.4176	-220.811	-61.5319	36.4421	-214.854	-38.746	15.4274	-212.572	-75.8203	78.0397	-202.725	-81.4973	54.4383	-197.303	-86.2161	35.0656	-237.069	-71.4273	115.973	-234.733	-66.7702	142.845	-261.98	-56.0926	127.02	
